{
    "asset": {
        "version": "2.0",
        "generator": "Open Asset Import Library (assimp v5.0.cd42b995)"
    },
    "extensionsUsed": [
        "FB_ngon_encoding"
    ],
    "accessors": [
        {
            "bufferView": 0,
            "byteOffset": 0,
            "componentType": 5126,
            "count": 360,
            "type": "VEC3",
            "max": [
                233.1300506591797,
                1071.2894287109376,
                24.196958541870118
            ],
            "min": [
                -110.9917221069336,
                188.03590393066407,
                -855.8158569335938
            ]
        },
        {
            "bufferView": 1,
            "byteOffset": 0,
            "componentType": 5126,
            "count": 360,
            "type": "VEC3",
            "max": [
                0.9963419437408447,
                0.9988924860954285,
                0.9952279329299927
            ],
            "min": [
                -0.9963419437408447,
                -0.9988924860954285,
                -0.9952279329299927
            ]
        },
        {
            "bufferView": 2,
            "byteOffset": 0,
            "componentType": 5126,
            "count": 360,
            "type": "VEC2",
            "max": [
                3.1404013633728029,
                2.901888608932495
            ],
            "min": [
                -3.2100484371185304,
                -4.016779899597168
            ]
        },
        {
            "bufferView": 3,
            "byteOffset": 0,
            "componentType": 5125,
            "count": 1536,
            "type": "SCALAR",
            "max": [
                359
            ],
            "min": [
                0
            ]
        },
        {
            "bufferView": 4,
            "byteOffset": 0,
            "componentType": 5126,
            "count": 364,
            "type": "VEC3",
            "max": [
                404.14971923828127,
                817.45458984375,
                238.1525421142578
            ],
            "min": [
                -261.7132568359375,
                548.4105834960938,
                -425.90155029296877
            ]
        },
        {
            "bufferView": 5,
            "byteOffset": 0,
            "componentType": 5126,
            "count": 364,
            "type": "VEC3",
            "max": [
                0.9911839962005615,
                0.9944462180137634,
                0.9884815812110901
            ],
            "min": [
                -0.9911839962005615,
                -0.9944462180137634,
                -0.9884815812110901
            ]
        },
        {
            "bufferView": 6,
            "byteOffset": 0,
            "componentType": 5126,
            "count": 364,
            "type": "VEC2",
            "max": [
                1.4665277004241944,
                1.508012056350708
            ],
            "min": [
                -1.1723476648330689,
                -3.097759246826172
            ]
        },
        {
            "bufferView": 7,
            "byteOffset": 0,
            "componentType": 5125,
            "count": 1536,
            "type": "SCALAR",
            "max": [
                363
            ],
            "min": [
                0
            ]
        }
    ],
    "buffers": [
        {
            "byteLength": 35456,
            "uri": "result.bin"
        }
    ],
    "bufferViews": [
        {
            "buffer": 0,
            "byteOffset": 0,
            "byteLength": 4320,
            "target": 34962
        },
        {
            "buffer": 0,
            "byteOffset": 4320,
            "byteLength": 4320,
            "target": 34962
        },
        {
            "buffer": 0,
            "byteOffset": 8640,
            "byteLength": 2880,
            "target": 34962
        },
        {
            "buffer": 0,
            "byteOffset": 11520,
            "byteLength": 6144,
            "target": 34963
        },
        {
            "buffer": 0,
            "byteOffset": 17664,
            "byteLength": 4368,
            "target": 34962
        },
        {
            "buffer": 0,
            "byteOffset": 22032,
            "byteLength": 4368,
            "target": 34962
        },
        {
            "buffer": 0,
            "byteOffset": 26400,
            "byteLength": 2912,
            "target": 34962
        },
        {
            "buffer": 0,
            "byteOffset": 29312,
            "byteLength": 6144,
            "target": 34963
        }
    ],
    "materials": [
        {
            "name": "DefaultMaterial",
            "pbrMetallicRoughness": {
                "baseColorFactor": [
                    0.6000000238418579,
                    0.6000000238418579,
                    0.6000000238418579,
                    1.0
                ],
                "metallicFactor": 0.0
            }
        },
        {
            "name": "91a3b0",
            "pbrMetallicRoughness": {
                "baseColorFactor": [
                    0.6000000238418579,
                    0.6000000238418579,
                    0.6000000238418579,
                    1.0
                ],
                "metallicFactor": 0.0
            }
        },
        {
            "name": "b4a7d6",
            "pbrMetallicRoughness": {
                "baseColorFactor": [
                    0.6000000238418579,
                    0.6000000238418579,
                    0.6000000238418579,
                    1.0
                ],
                "metallicFactor": 0.0
            }
        }
    ],
    "meshes": [
        {
            "name": "torus3",
            "primitives": [
                {
                    "extensions": {
                        "FB_ngon_encoding": {}
                    },
                    "mode": 4,
                    "material": 1,
                    "indices": 3,
                    "attributes": {
                        "POSITION": 0,
                        "NORMAL": 1,
                        "TEXCOORD_0": 2
                    }
                }
            ]
        },
        {
            "name": "torus10",
            "primitives": [
                {
                    "extensions": {
                        "FB_ngon_encoding": {}
                    },
                    "mode": 4,
                    "material": 2,
                    "indices": 7,
                    "attributes": {
                        "POSITION": 4,
                        "NORMAL": 5,
                        "TEXCOORD_0": 6
                    }
                }
            ]
        }
    ],
    "nodes": [
        {
            "name": "input.obj",
            "children": [
                1,
                2
            ]
        },
        {
            "name": "torus3",
            "mesh": 0
        },
        {
            "name": "torus10",
            "mesh": 1
        }
    ],
    "scenes": [
        {
            "nodes": [
                0
            ]
        }
    ],
    "scene": 0
}